<?xml version="1.0" standalone="no"?>
<!DOCTYPE svg PUBLIC "-//W3C//DTD SVG 20010904//EN"
 "http://www.w3.org/TR/2001/REC-SVG-20010904/DTD/svg10.dtd">
<svg version="1.0" xmlns="http://www.w3.org/2000/svg"
 width="1280.000000pt" height="1280.000000pt" viewBox="0 0 1280.000000 1280.000000"
 preserveAspectRatio="xMidYMid meet">
<metadata>
Created by potrace 1.14, written by Peter Selinger 2001-2017
</metadata>
<g transform="translate(0.000000,1280.000000) scale(0.100000,-0.100000)"
fill="#000000" stroke="none">
<path d="M2917 10155 c-1 -2 -51 -5 -112 -9 -105 -5 -344 -32 -375 -41 -8 -3
-33 -7 -55 -10 -388 -58 -824 -252 -1090 -485 -46 -40 -203 -198 -225 -226 -8
-11 -31 -40 -51 -64 -20 -25 -61 -83 -91 -130 -173 -265 -270 -559 -294 -892
-11 -146 -5 -397 11 -478 3 -14 8 -45 11 -70 10 -77 65 -281 101 -369 72 -179
177 -340 307 -470 90 -90 87 -88 173 -151 37 -27 73 -53 78 -57 56 -42 280
-149 435 -208 105 -40 410 -139 460 -150 8 -2 68 -17 133 -35 64 -17 125 -33
135 -35 9 -2 67 -16 127 -30 153 -36 147 -35 180 -41 17 -2 48 -10 70 -16 22
-5 49 -12 60 -14 11 -2 101 -22 200 -44 99 -22 191 -43 205 -45 14 -3 40 -9
58 -14 17 -5 32 -8 32 -5 0 3 8 0 18 -5 9 -5 31 -11 47 -14 17 -3 59 -12 95
-22 36 -9 72 -18 80 -20 49 -11 269 -82 345 -112 292 -116 429 -224 503 -399
29 -70 34 -95 37 -216 11 -402 -228 -679 -690 -798 -74 -19 -120 -28 -183 -35
-20 -3 -48 -7 -62 -10 -132 -26 -639 -26 -770 0 -13 2 -40 7 -60 10 -310 46
-588 197 -735 400 -88 123 -173 341 -201 520 -3 22 -9 56 -13 75 l-7 35 -648
1 -647 1 5 -126 c4 -69 8 -137 10 -151 3 -14 7 -47 11 -73 27 -215 116 -496
207 -650 15 -26 28 -51 28 -56 0 -14 119 -182 184 -259 70 -85 183 -196 261
-257 27 -22 56 -45 63 -52 17 -16 197 -135 247 -163 229 -129 539 -244 800
-296 135 -27 185 -36 211 -39 18 -2 67 -9 110 -14 158 -22 356 -34 574 -34
167 -1 387 8 440 17 14 3 57 7 95 11 81 7 122 13 185 25 25 5 59 11 75 14 130
19 335 79 545 158 150 56 429 220 562 330 137 113 313 307 410 452 42 62 140
248 170 321 65 160 111 360 127 555 8 91 6 359 -3 425 -3 22 -8 63 -11 90 -10
80 -54 252 -92 354 -99 265 -270 492 -498 662 -89 66 -147 101 -285 175 -177
94 -584 230 -875 294 -22 4 -50 11 -62 14 -13 3 -31 8 -41 10 -11 2 -68 16
-128 31 -60 14 -116 28 -125 30 -8 2 -44 10 -80 19 -35 9 -74 18 -86 21 -52
11 -65 14 -81 19 -9 3 -28 7 -42 10 -14 2 -63 14 -110 26 -47 12 -168 42 -270
67 -102 24 -202 49 -222 54 -21 5 -55 13 -75 18 -56 13 -256 75 -348 106 -268
92 -417 213 -485 393 -51 134 -45 359 13 497 116 277 433 466 857 513 134 14
520 6 590 -13 8 -2 31 -7 50 -10 247 -41 476 -151 626 -300 112 -110 180 -225
227 -386 25 -83 32 -116 43 -214 3 -27 8 -52 10 -55 3 -3 297 -5 654 -6 l648
0 -4 40 c-1 23 -6 78 -9 123 -3 45 -7 90 -9 100 -2 10 -7 38 -11 63 -44 291
-138 547 -282 773 -156 244 -391 464 -683 638 -102 60 -279 148 -330 164 -14
4 -29 11 -35 15 -17 13 -255 90 -340 111 -109 26 -212 48 -260 54 -22 3 -49 7
-60 9 -11 2 -49 7 -85 10 -36 4 -83 10 -105 13 -38 5 -492 12 -498 8z"/>
<path d="M9228 10085 c-1 -2 -34 -6 -73 -10 -38 -3 -81 -8 -95 -10 -49 -7
-115 -17 -135 -21 -10 -2 -37 -6 -58 -9 -22 -4 -51 -11 -66 -16 -14 -6 -27
-10 -29 -9 -13 7 -222 -54 -350 -102 -227 -85 -506 -239 -662 -365 -8 -6 -42
-34 -75 -60 -74 -59 -306 -288 -367 -363 -351 -429 -570 -920 -677 -1520 -29
-166 -36 -209 -46 -310 -4 -30 -8 -68 -10 -85 -26 -206 -27 -778 -1 -1057 9
-90 15 -151 20 -178 2 -14 7 -47 11 -75 35 -263 149 -683 244 -900 286 -649
699 -1103 1267 -1390 91 -47 317 -142 354 -150 8 -2 44 -13 80 -24 72 -22 245
-66 300 -75 19 -3 46 -8 60 -11 13 -3 42 -7 65 -10 22 -4 51 -8 65 -10 28 -4
89 -11 195 -22 95 -9 520 -9 623 0 446 42 816 156 1163 359 64 38 222 147 261
180 14 13 46 39 70 58 74 60 254 246 336 348 185 229 318 453 426 719 41 101
118 327 130 383 3 14 10 47 16 73 5 27 12 52 15 57 2 4 7 25 11 45 3 21 8 47
10 59 2 11 7 39 10 61 l6 40 -668 0 -668 0 -56 -165 c-69 -201 -62 -182 -122
-310 -71 -149 -148 -260 -258 -371 -252 -254 -569 -373 -1000 -373 -299 0
-553 71 -795 222 -22 14 -42 28 -45 31 -3 3 -31 25 -62 49 -61 45 -194 174
-241 233 -66 84 -118 156 -134 189 -10 19 -21 37 -25 40 -4 3 -27 48 -51 100
-123 263 -171 444 -222 832 -27 205 -27 828 0 988 2 14 7 51 10 83 5 50 14
100 40 242 88 472 326 914 622 1152 27 21 50 40 53 43 14 15 144 93 205 124
131 65 309 114 475 131 63 6 297 7 350 0 129 -14 149 -17 220 -30 31 -6 167
-45 205 -58 236 -86 443 -247 574 -446 34 -51 61 -99 61 -107 0 -8 3 -14 8
-14 4 0 13 -12 20 -28 40 -85 130 -314 136 -345 1 -6 8 -30 15 -52 l13 -41
676 1 677 0 -1 35 c-1 46 -14 161 -18 169 -2 3 -7 29 -10 56 -39 293 -266 770
-515 1081 -86 106 -277 295 -381 376 -331 256 -714 420 -1185 507 -114 21
-145 26 -255 36 -36 4 -78 9 -95 12 -33 6 -641 14 -647 8z"/>
</g>
</svg>
